<svg xmlns="http://www.w3.org/2000/svg" width="128" height="192" viewBox="0 0 128 192">
  <ellipse cx="64" cy="176" rx="36" ry="10" fill="#17202a" opacity=".18"/>
  <path d="M40 84h48l8 55H32z" fill="#3f6c8c"/>
  <path d="M44 139h17v34H43zM67 139h17v34H67z" fill="#253343"/>
  <circle cx="64" cy="54" r="29" fill="#e7b28c"/>
  <path d="M35 54c1-22 17-35 39-33 16 2 28 14 29 33-19-9-42-10-68 0z" fill="#39434d"/>
  <path d="M48 82c9 9 23 9 32 0l-5 16H53z" fill="#f4d1bd"/>
  <circle cx="88" cy="92" r="12" fill="#2b78c5"/>
  <path d="M84 92h8M88 88v8" stroke="#fff" stroke-width="3" stroke-linecap="round"/>
</svg>
