<svg xmlns="http://www.w3.org/2000/svg" width="128" height="192" viewBox="0 0 128 192">
  <ellipse cx="64" cy="176" rx="36" ry="10" fill="#17202a" opacity=".18"/>
  <path d="M38 84h52l6 55H32z" fill="#6f5aa8"/>
  <path d="M44 139h17v34H43zM67 139h17v34H67z" fill="#2b3040"/>
  <circle cx="64" cy="54" r="29" fill="#e7b28c"/>
  <path d="M36 55c0-23 17-36 38-34 18 2 29 16 28 35-15-10-38-12-66-1z" fill="#55443b"/>
  <path d="M47 82c10 9 24 9 34 0l-5 15H52z" fill="#f4d2c1"/>
  <rect x="47" y="102" width="34" height="18" rx="4" fill="#fff" opacity=".86"/>
  <path d="M52 108h24v4H52zM52 115h17v3H52z" fill="#6f5aa8"/>
</svg>
