<svg xmlns="http://www.w3.org/2000/svg" width="128" height="192" viewBox="0 0 128 192">
  <ellipse cx="64" cy="176" rx="36" ry="10" fill="#17202a" opacity=".18"/>
  <path d="M43 84h42l8 54H35z" fill="#8f3d69"/>
  <path d="M44 138h16v35H43zM68 138h17v35H68z" fill="#283748"/>
  <path d="M38 93c-9 10-13 23-13 38h14c2-11 5-21 11-29zM90 93c9 10 13 23 13 38H89c-2-11-5-21-11-29z" fill="#8f3d69"/>
  <circle cx="64" cy="54" r="29" fill="#e9b48e"/>
  <path d="M35 53c2-23 18-37 39-34 17 2 29 16 29 35-12-8-26-13-43-12-10 0-18 3-25 11z" fill="#342a2a"/>
  <path d="M47 82c9 9 25 10 35 0l-5 15H52z" fill="#f2cfbd"/>
  <rect x="55" y="94" width="18" height="8" rx="2" fill="#f8f9fb" opacity=".9"/>
  <path d="M52 172h17v8H49c-4 0-6-2-5-5zM78 172h17l8 3c1 3-1 5-5 5H78z" fill="#17202a"/>
</svg>
