<svg xmlns="http://www.w3.org/2000/svg" width="128" height="192" viewBox="0 0 128 192">
  <ellipse cx="64" cy="176" rx="36" ry="10" fill="#17202a" opacity=".18"/>
  <path d="M39 84h50l7 55H32z" fill="#b76537"/>
  <path d="M44 139h17v34H43zM67 139h17v34H67z" fill="#2d3642"/>
  <circle cx="64" cy="54" r="29" fill="#e4aa80"/>
  <path d="M38 48c4-20 20-29 40-25 14 3 23 13 25 28-18-8-40-9-65-3z" fill="#2f2723"/>
  <path d="M46 83c11 8 25 8 36 0l-6 15H52z" fill="#f4d0bc"/>
  <rect x="49" y="101" width="30" height="20" rx="3" fill="#fff" opacity=".85"/>
  <path d="M54 107h18v4H54zM54 115h12v3H54z" fill="#b76537"/>
</svg>
